<svg width="100%" height="100%" id="svg" viewBox="0 0 1440 590" xmlns="http://www.w3.org/2000/svg" class="transition duration-300 ease-in-out delay-150"><defs><linearGradient id="gradient" x1="0%" y1="50%" x2="100%" y2="50%"><stop offset="5%" stop-color="#9900ef"></stop><stop offset="95%" stop-color="#00d084"></stop></linearGradient></defs><path d="M 0,600 C 0,600 0,150 0,150 C 144,127.82142857142857 288,105.64285714285714 413,119 C 538,132.35714285714286 644,181.25 735,189 C 826,196.75 902,163.35714285714286 1017,150 C 1132,136.64285714285714 1286,143.32142857142856 1440,150 C 1440,150 1440,600 1440,600 Z" stroke="none" stroke-width="0" fill="url(#gradient)" fill-opacity="0.4" class="transition-all duration-300 ease-in-out delay-150 path-0"></path><defs><linearGradient id="gradient" x1="0%" y1="50%" x2="100%" y2="50%"><stop offset="5%" stop-color="#9900ef"></stop><stop offset="95%" stop-color="#00d084"></stop></linearGradient></defs><path d="M 0,600 C 0,600 0,300 0,300 C 103.5,277.67857142857144 207,255.35714285714283 321,263 C 435,270.64285714285717 559.5000000000001,308.25 697,312 C 834.4999999999999,315.75 985,285.6428571428571 1111,278 C 1237,270.3571428571429 1338.5,285.17857142857144 1440,300 C 1440,300 1440,600 1440,600 Z" stroke="none" stroke-width="0" fill="url(#gradient)" fill-opacity="0.53" class="transition-all duration-300 ease-in-out delay-150 path-1"></path><defs><linearGradient id="gradient" x1="0%" y1="50%" x2="100%" y2="50%"><stop offset="5%" stop-color="#9900ef"></stop><stop offset="95%" stop-color="#00d084"></stop></linearGradient></defs><path d="M 0,600 C 0,600 0,450 0,450 C 114.89285714285714,431.8928571428571 229.78571428571428,413.7857142857143 340,424 C 450.2142857142857,434.2142857142857 555.7500000000001,472.75 678,470 C 800.2499999999999,467.25 939.2142857142858,423.2142857142857 1069,413 C 1198.7857142857142,402.7857142857143 1319.392857142857,426.3928571428571 1440,450 C 1440,450 1440,600 1440,600 Z" stroke="none" stroke-width="0" fill="url(#gradient)" fill-opacity="1" class="transition-all duration-300 ease-in-out delay-150 path-2"></path></svg>